<?xml version="1.0" encoding="UTF-8" standalone="no"?>
<svg width="270px" height="39px" viewBox="0 0 270 39" version="1.1" xmlns="http://www.w3.org/2000/svg" xmlns:xlink="http://www.w3.org/1999/xlink" xmlns:sketch="http://www.bohemiancoding.com/sketch/ns">
    <title>Untitled</title>
    <description>Created with Sketch (http://www.bohemiancoding.com/sketch)</description>
    <defs></defs>
    <g id="Page-1" stroke="none" stroke-width="1" fill="none" fill-rule="evenodd" sketch:type="MSPage">
        <g id="horizontal" sketch:type="MSLayerGroup">
            <g id="Group" sketch:type="MSShapeGroup">
                <g id="Shape">
                    <path d="M14.4037657,30.6878788 L-0.0564853556,38.0575758 L27.790795,38.0575758 L21.2949791,22.3969697 L14.4037657,30.6878788 Z" fill="#000000"></path>
                    <path d="M24.3451883,-0.0575757576 L23.4414226,12.4939394 L10.958159,20.9 L35.0774059,16.6393939 L24.3451883,-0.0575757576 Z" fill="#000000"></path>
                    <path d="M36.9979079,19.6333333 L35.3598326,29.3060606 L31.292887,38.0575758 L48.8033473,38.0575758 L36.9979079,19.6333333 Z" fill="#000000"></path>
                    <path d="M24.3451883,-0.0575757576 L10.958159,20.9 L23.4414226,12.4939394 L24.3451883,-0.0575757576 Z" fill="#808285"></path>
                    <path d="M8.5292887,24.6424242 L-0.0564853556,38.0575758 L14.4037657,30.6878788 L8.5292887,24.6424242 Z" fill="#808285"></path>
                    <path d="M21.2949791,22.3969697 L8.5292887,24.6424242 L14.4037657,30.6878788 L21.2949791,22.3969697 Z" fill="#58595B"></path>
                    <path d="M24.5146444,21.8212121 L31.292887,38.0575758 L35.3598326,29.3060606 L24.5146444,21.8212121 Z" fill="#808285"></path>
                    <path d="M36.9979079,19.6333333 L24.5146444,21.8212121 L35.3598326,29.3060606 L36.9979079,19.6333333 Z" fill="#58595B"></path>
                </g>
                <g transform="translate(76.255230, 27.636364)" id="Shape" fill="#58595B">
                    <path d="M2.71129707,7.77272727 L2.71129707,1.20909091 L-0.0564853556,1.20909091 L-0.0564853556,0.345454545 L6.66527197,0.345454545 L6.66527197,1.20909091 L3.89748954,1.20909091 L3.89748954,7.77272727 L2.71129707,7.77272727 L2.71129707,7.77272727 Z"></path>
                    <path d="M15.9853556,7.77272727 L15.9853556,0.345454545 L20.8995816,0.345454545 L20.8995816,1.20909091 L17.1150628,1.20909091 L17.1150628,3.45454545 L20.334728,3.45454545 L20.334728,4.31818182 L17.1150628,4.31818182 L17.1150628,6.90909091 L21.1820084,6.90909091 L21.1820084,7.77272727 L15.9853556,7.77272727 L15.9853556,7.77272727 Z"></path>
                    <path d="M36.1506276,7.54242424 C35.416318,7.83030303 34.6820084,7.94545455 34.0606695,7.94545455 C32.9309623,7.94545455 31.9707113,7.6 31.292887,6.90909091 C30.6150628,6.21818182 30.2196653,5.2969697 30.2196653,4.14545455 C30.2196653,2.99393939 30.5585774,2.01515152 31.292887,1.32424242 C31.9707113,0.633333333 32.9309623,0.23030303 34.0606695,0.23030303 C34.6820084,0.23030303 35.3598326,0.345454545 36.0941423,0.575757576 L36.0941423,1.61212121 C35.3598326,1.26666667 34.625523,1.09393939 34.0041841,1.09393939 C33.2698745,1.09393939 32.6485356,1.38181818 32.1401674,1.95757576 C31.6317992,2.53333333 31.4058577,3.22424242 31.4058577,4.08787879 C31.4058577,4.95151515 31.6882845,5.7 32.2531381,6.21818182 C32.8179916,6.79393939 33.4958159,7.08181818 34.3430962,7.08181818 C34.8514644,7.08181818 35.4728033,6.96666667 36.207113,6.67878788 L36.207113,7.54242424 L36.1506276,7.54242424 Z"></path>
                    <path d="M45.4142259,7.77272727 L45.4142259,0.345454545 L46.5439331,0.345454545 L46.5439331,3.56969697 L49.5941423,3.56969697 L49.5941423,0.345454545 L50.7238494,0.345454545 L50.7238494,7.77272727 L49.5941423,7.77272727 L49.5941423,4.43333333 L46.5439331,4.43333333 L46.5439331,7.77272727 L45.4142259,7.77272727 L45.4142259,7.77272727 Z"></path>
                    <path d="M61.0041841,7.77272727 L61.0041841,0.345454545 L62.0774059,0.345454545 L65.4100418,5.7 L65.4100418,0.345454545 L66.3138075,0.345454545 L66.3138075,7.77272727 L65.2970711,7.77272727 L61.9644351,2.36060606 L61.9644351,7.77272727 L61.0041841,7.77272727 L61.0041841,7.77272727 Z"></path>
                    <path d="M75.8033473,4.03030303 C75.8033473,2.82121212 76.0857741,1.9 76.6506276,1.20909091 C77.2154812,0.518181818 77.9497908,0.172727273 78.9665272,0.172727273 C79.9267782,0.172727273 80.6610879,0.518181818 81.2824268,1.20909091 C81.8472803,1.9 82.1297071,2.82121212 82.1297071,4.03030303 C82.1297071,5.23939394 81.8472803,6.16060606 81.2824268,6.85151515 C80.7175732,7.54242424 79.9267782,7.88787879 78.9665272,7.88787879 C78.0062762,7.88787879 77.2719665,7.54242424 76.6506276,6.85151515 C76.0857741,6.16060606 75.8033473,5.23939394 75.8033473,4.03030303 L75.8033473,4.03030303 Z M76.9895397,4.03030303 C76.9895397,5.00909091 77.1589958,5.75757576 77.4979079,6.27575758 C77.8368201,6.79393939 78.2887029,7.08181818 78.9665272,7.08181818 C79.5878661,7.08181818 80.0962343,6.79393939 80.4351464,6.27575758 C80.7740586,5.75757576 80.9435146,5.00909091 80.9435146,4.03030303 C80.9435146,3.05151515 80.7740586,2.3030303 80.4351464,1.78484848 C80.0962343,1.26666667 79.5878661,0.978787879 78.9665272,0.978787879 C78.3451883,0.978787879 77.8368201,1.26666667 77.4979079,1.78484848 C77.1589958,2.36060606 76.9895397,3.10909091 76.9895397,4.03030303 L76.9895397,4.03030303 Z"></path>
                    <path d="M91.958159,7.77272727 L91.958159,0.345454545 L93.0878661,0.345454545 L93.0878661,6.90909091 L96.9853556,6.90909091 L96.9853556,7.77272727 L91.958159,7.77272727 L91.958159,7.77272727 Z"></path>
                    <path d="M106.305439,4.03030303 C106.305439,2.82121212 106.587866,1.9 107.15272,1.20909091 C107.717573,0.518181818 108.508368,0.172727273 109.468619,0.172727273 C110.42887,0.172727273 111.16318,0.518181818 111.728033,1.20909091 C112.292887,1.9 112.575314,2.82121212 112.575314,4.03030303 C112.575314,5.23939394 112.292887,6.16060606 111.728033,6.85151515 C111.16318,7.54242424 110.372385,7.88787879 109.468619,7.88787879 C108.508368,7.88787879 107.774059,7.54242424 107.15272,6.85151515 C106.587866,6.16060606 106.305439,5.23939394 106.305439,4.03030303 L106.305439,4.03030303 Z M107.491632,4.03030303 C107.491632,5.00909091 107.661088,5.75757576 108,6.27575758 C108.338912,6.79393939 108.84728,7.08181818 109.468619,7.08181818 C110.089958,7.08181818 110.598326,6.79393939 110.937238,6.27575758 C111.276151,5.75757576 111.445607,5.00909091 111.445607,4.03030303 C111.445607,3.05151515 111.276151,2.3030303 110.937238,1.78484848 C110.598326,1.26666667 110.089958,0.978787879 109.468619,0.978787879 C108.84728,0.978787879 108.338912,1.26666667 108,1.78484848 C107.661088,2.36060606 107.491632,3.10909091 107.491632,4.03030303 L107.491632,4.03030303 Z"></path>
                    <path d="M127.543933,0.518181818 L127.543933,1.55454545 C126.809623,1.20909091 126.075314,1.03636364 125.453975,1.03636364 C124.719665,1.03636364 124.098326,1.32424242 123.589958,1.9 C123.08159,2.47575758 122.855649,3.16666667 122.855649,4.03030303 C122.855649,4.89393939 123.138075,5.64242424 123.702929,6.16060606 C124.267782,6.73636364 124.945607,7.02424242 125.792887,7.02424242 C125.962343,7.02424242 126.24477,7.02424242 126.527197,6.96666667 L126.527197,5.00909091 L125.171548,5.00909091 L125.171548,4.14545455 L127.656904,4.14545455 L127.656904,7.6 C126.922594,7.83030303 126.188285,7.94545455 125.51046,7.94545455 C124.380753,7.94545455 123.476987,7.6 122.799163,6.85151515 C122.121339,6.16060606 121.725941,5.23939394 121.725941,4.08787879 C121.725941,2.93636364 122.064854,1.95757576 122.799163,1.26666667 C123.476987,0.575757576 124.437238,0.172727273 125.566946,0.172727273 C126.131799,0.172727273 126.809623,0.287878788 127.543933,0.518181818 L127.543933,0.518181818 Z"></path>
                    <path d="M138.953975,7.77272727 L138.953975,6.90909091 L139.518828,6.90909091 L139.518828,1.20909091 L138.953975,1.20909091 L138.953975,0.345454545 L141.213389,0.345454545 L141.213389,1.20909091 L140.648536,1.20909091 L140.648536,6.90909091 L141.213389,6.90909091 L141.213389,7.77272727 L138.953975,7.77272727 L138.953975,7.77272727 Z"></path>
                    <path d="M153.131799,7.77272727 L153.131799,0.345454545 L158.046025,0.345454545 L158.046025,1.20909091 L154.261506,1.20909091 L154.261506,3.45454545 L157.481172,3.45454545 L157.481172,4.31818182 L154.261506,4.31818182 L154.261506,6.90909091 L158.328452,6.90909091 L158.328452,7.77272727 L153.131799,7.77272727 L153.131799,7.77272727 Z"></path>
                    <path d="M172.958159,0.518181818 L172.958159,1.4969697 C172.110879,1.15151515 171.433054,1.03636364 170.75523,1.03636364 C169.738494,1.03636364 169.230126,1.38181818 169.230126,2.07272727 C169.230126,2.36060606 169.343096,2.59090909 169.512552,2.76363636 C169.682008,2.93636364 170.077406,3.10909091 170.585774,3.28181818 L171.320084,3.51212121 L171.997908,3.74242424 C173.07113,4.14545455 173.579498,4.77878788 173.579498,5.64242424 C173.579498,6.33333333 173.297071,6.85151515 172.788703,7.31212121 C172.223849,7.71515152 171.546025,7.94545455 170.642259,7.94545455 C170.020921,7.94545455 169.230126,7.83030303 168.213389,7.54242424 L168.213389,6.39090909 C169.230126,6.85151515 170.020921,7.08181818 170.698745,7.08181818 C171.263598,7.08181818 171.715481,6.96666667 171.997908,6.73636364 C172.33682,6.50606061 172.506276,6.21818182 172.506276,5.87272727 C172.506276,5.58484848 172.393305,5.35454545 172.223849,5.18181818 C172.054393,5.00909091 171.60251,4.83636364 171.037657,4.60606061 L170.303347,4.31818182 C169.569038,4.03030303 169.060669,3.74242424 168.778243,3.45454545 C168.495816,3.16666667 168.32636,2.76363636 168.32636,2.3030303 C168.32636,1.61212121 168.552301,1.15151515 169.004184,0.748484848 C169.456067,0.403030303 170.077406,0.172727273 170.868201,0.172727273 C171.376569,0.172727273 172.110879,0.287878788 172.958159,0.518181818 L172.958159,0.518181818 Z"></path>
                </g>
                <g transform="translate(55.920502, 3.454545)" id="Shape" fill="#000000">
                    <path d="M52.5313808,2.53333333 C52.3619247,2.01515152 52.0230126,1.61212121 51.6276151,1.26666667 C51.2322176,0.921212121 50.7238494,0.633333333 50.1025105,0.460606061 C49.4811715,0.287878788 48.8033473,0.172727273 47.9560669,0.172727273 L46.7133891,0.172727273 C46.374477,0.172727273 45.9790795,0.172727273 45.6401674,0.23030303 C45.3012552,0.23030303 44.9058577,0.287878788 44.623431,0.287878788 C44.2845188,0.287878788 44.0020921,0.345454545 43.7196653,0.345454545 L43.7196653,14.5666667 L46.4309623,14.5666667 L46.4309623,9.21212121 C47.6171548,9.21212121 48.8598326,9.03939394 49.8200837,8.69393939 C50.4979079,8.46363636 51.0627615,8.11818182 51.5146444,7.65757576 C51.9665272,7.1969697 52.3054393,6.73636364 52.4748954,6.16060606 C52.7008368,5.58484848 52.8138075,4.95151515 52.8138075,4.31818182 C52.8702929,3.56969697 52.7573222,2.99393939 52.5313808,2.53333333 L52.5313808,2.53333333 Z M49.8200837,5.93030303 C49.707113,6.33333333 49.5376569,6.67878788 49.2552301,6.90909091 C49.0292887,7.13939394 48.5774059,7.48484848 48.1820084,7.6 C47.5041841,7.83030303 46.8263598,7.88787879 46.4309623,7.94545455 L46.4309623,1.66969697 C46.6004184,1.61212121 46.8263598,1.61212121 46.9958159,1.61212121 L47.6736402,1.61212121 C48.3514644,1.61212121 48.916318,1.84242424 49.3682008,2.24545455 C49.8200837,2.70606061 49.9895397,3.3969697 49.9895397,4.37575758 C50.0460251,4.95151515 49.9895397,5.52727273 49.8200837,5.93030303 L49.8200837,5.93030303 Z"></path>
                    <path d="M9.94142259,14.5090909 L8.24686192,9.32727273 L3.21966527,10.1909091 L1.75104603,14.5090909 L0.0564853556,14.5090909 L5.30962343,0.23030303 L7.96443515,-0.23030303 L12.8786611,14.5666667 L9.94142259,14.5666667 L9.94142259,14.5090909 Z M7.73849372,7.83030303 L5.93096234,2.18787879 L3.78451883,8.52121212 L7.73849372,7.83030303 L7.73849372,7.83030303 Z"></path>
                    <path d="M136.355649,14.5090909 L134.661088,9.32727273 L129.633891,10.1909091 L128.165272,14.5090909 L126.470711,14.5090909 L131.780335,0.23030303 L134.435146,-0.23030303 L139.349372,14.5666667 L136.355649,14.5666667 L136.355649,14.5090909 Z M134.15272,7.83030303 L132.345188,2.18787879 L130.198745,8.52121212 L134.15272,7.83030303 L134.15272,7.83030303 Z"></path>
                    <path d="M32.1966527,2.53333333 C32.0271967,2.01515152 31.6882845,1.61212121 31.292887,1.26666667 C30.8974895,0.921212121 30.3891213,0.633333333 29.8242678,0.460606061 C29.2029289,0.287878788 28.5251046,0.172727273 27.6778243,0.172727273 L26.4351464,0.172727273 C26.0962343,0.172727273 25.7008368,0.172727273 25.3619247,0.23030303 C25.0230126,0.23030303 24.6276151,0.287878788 24.3451883,0.287878788 C24.0062762,0.287878788 23.7238494,0.345454545 23.4414226,0.345454545 L23.4414226,14.5666667 L26.1527197,14.5666667 L26.1527197,9.21212121 C27.3389121,9.21212121 28.58159,9.03939394 29.541841,8.69393939 C30.2196653,8.46363636 30.7845188,8.11818182 31.2364017,7.65757576 C31.6882845,7.1969697 32.0271967,6.73636364 32.1966527,6.16060606 C32.4225941,5.58484848 32.5355649,4.95151515 32.5355649,4.31818182 C32.5355649,3.56969697 32.4225941,2.99393939 32.1966527,2.53333333 L32.1966527,2.53333333 Z M29.4853556,5.93030303 C29.3723849,6.33333333 29.1464435,6.67878788 28.9205021,6.90909091 C28.6945607,7.13939394 28.2426778,7.48484848 27.8472803,7.6 C27.1694561,7.83030303 26.4916318,7.88787879 26.0962343,7.94545455 L26.0962343,1.66969697 C26.2656904,1.61212121 26.4916318,1.61212121 26.6610879,1.61212121 L27.3389121,1.61212121 C28.0167364,1.61212121 28.58159,1.84242424 29.0334728,2.24545455 C29.4288703,2.70606061 29.6548117,3.3969697 29.6548117,4.37575758 C29.7112971,4.95151515 29.6548117,5.52727273 29.4853556,5.93030303 L29.4853556,5.93030303 Z"></path>
                    <path d="M74.1087866,14.5666667 L64.6757322,4.54848485 C64.6757322,5.41212121 64.7322176,6.16060606 64.7322176,6.85151515 L64.7322176,7.77272727 L64.7322176,8.57878788 L64.7322176,9.26969697 L64.7322176,9.67272727 L64.7322176,14.5090909 L63.1506276,14.5090909 L63.1506276,0.115151515 L64.3368201,0.115151515 L73.7698745,10.1333333 C73.7698745,9.38484848 73.7698745,8.63636364 73.7133891,8.0030303 L73.7133891,7.13939394 L73.7133891,6.27575758 L73.7133891,5.52727273 L73.7133891,5.00909091 L73.7133891,0.287878788 L75.2949791,0.287878788 L75.2949791,14.6818182 L74.1087866,14.6818182 L74.1087866,14.5666667 Z"></path>
                    <path d="M98.2280335,7.31212121 C98.2280335,8.46363636 98.1150628,9.44242424 97.832636,10.3636364 C97.5502092,11.2848485 97.1548117,12.0333333 96.5899582,12.7242424 C96.0251046,13.3575758 95.3472803,13.8757576 94.5,14.2212121 C93.6527197,14.5666667 92.6924686,14.7393939 91.5627615,14.7393939 C90.4330544,14.7393939 89.416318,14.5666667 88.625523,14.2212121 C87.7782427,13.8757576 87.1569038,13.3575758 86.5920502,12.7242424 C86.083682,12.0909091 85.6882845,11.2848485 85.4623431,10.3636364 C85.2364017,9.44242424 85.0669456,8.46363636 85.0669456,7.31212121 C85.0669456,6.21818182 85.1799163,5.18181818 85.4623431,4.31818182 C85.6882845,3.3969697 86.083682,2.64848485 86.6485356,2.01515152 C87.2133891,1.38181818 87.8912134,0.921212121 88.6820084,0.575757576 C89.5292887,0.23030303 90.4895397,0.0575757576 91.6192469,0.0575757576 C92.748954,0.0575757576 93.709205,0.23030303 94.5564854,0.575757576 C95.4037657,0.921212121 96.08159,1.38181818 96.6464435,2.01515152 C97.2112971,2.64848485 97.6066946,3.3969697 97.8891213,4.31818182 C98.1150628,5.18181818 98.2280335,6.21818182 98.2280335,7.31212121 L98.2280335,7.31212121 Z M95.4037657,7.31212121 C95.4037657,6.44848485 95.3472803,5.64242424 95.1778243,4.95151515 C95.0083682,4.26060606 94.7824268,3.68484848 94.5,3.16666667 C94.1610879,2.70606061 93.7656904,2.3030303 93.3138075,2.07272727 C92.8054393,1.84242424 92.2405858,1.66969697 91.5627615,1.66969697 C90.9979079,1.66969697 90.4330544,1.72727273 89.9246862,1.84242424 C89.416318,1.95757576 89.0209205,2.13030303 88.7384937,2.41818182 C88.4560669,2.64848485 88.2301255,3.16666667 88.1171548,3.97272727 C88.0041841,4.77878788 87.8912134,5.87272727 87.8912134,7.25454545 C87.8912134,8.11818182 87.9476987,8.86666667 88.0606695,9.61515152 C88.1736402,10.3060606 88.3995816,10.9393939 88.6820084,11.4 C88.9644351,11.9181818 89.3598326,12.3212121 89.8117155,12.5515152 C90.2635983,12.8393939 90.8849372,12.9545455 91.5627615,12.9545455 C92.2970711,12.9545455 92.8619247,12.8969697 93.3702929,12.7818182 C93.8221757,12.6666667 94.2175732,12.4939394 94.5564854,12.2636364 C94.7259414,12.1484848 94.8389121,11.9757576 94.9518828,11.630303 C95.0648536,11.3424242 95.1778243,10.9393939 95.2343096,10.4787879 C95.290795,10.0181818 95.3472803,9.5 95.4037657,8.98181818 C95.3472803,8.46363636 95.4037657,7.88787879 95.4037657,7.31212121 L95.4037657,7.31212121 Z"></path>
                    <path d="M117.376569,0.172727273 L119.014644,0.172727273 L114.100418,14.5090909 L111.445607,14.5090909 L106.41841,0.172727273 L109.355649,0.172727273 L111.89749,7.88787879 C112.066946,8.46363636 112.292887,9.03939394 112.462343,9.61515152 C112.631799,10.1909091 112.801255,10.7090909 112.914226,11.169697 C113.083682,11.6878788 113.196653,12.2060606 113.366109,12.6666667 L113.874477,10.9393939 C114.043933,10.4212121 114.213389,9.9030303 114.382845,9.32727273 C114.552301,8.75151515 114.721757,8.23333333 114.891213,7.71515152 L117.376569,0.172727273 L117.376569,0.172727273 Z"></path>
                    <path d="M151.098326,14.5090909 L151.098326,1.72727273 L146.974895,1.66969697 L147.087866,0.23030303 L157.876569,0.23030303 L157.763598,1.66969697 L153.809623,1.78484848 L153.809623,14.5666667 L151.098326,14.5666667 L151.098326,14.5090909 Z"></path>
                    <path d="M171.037657,14.5090909 L168.32636,14.5090909 L168.32636,0.23030303 L171.037657,0.23030303 L171.037657,14.5090909 L171.037657,14.5090909 Z"></path>
                    <path d="M194.309623,7.31212121 C194.309623,8.46363636 194.196653,9.44242424 193.914226,10.3636364 C193.631799,11.2848485 193.236402,12.0333333 192.671548,12.7242424 C192.106695,13.3575758 191.42887,13.8757576 190.58159,14.2212121 C189.73431,14.5666667 188.774059,14.7393939 187.644351,14.7393939 C186.514644,14.7393939 185.497908,14.5666667 184.707113,14.2212121 C183.859833,13.8757576 183.238494,13.3575758 182.67364,12.7242424 C182.165272,12.0909091 181.769874,11.2848485 181.543933,10.3636364 C181.317992,9.44242424 181.148536,8.46363636 181.148536,7.31212121 C181.148536,6.21818182 181.261506,5.18181818 181.543933,4.31818182 C181.82636,3.3969697 182.165272,2.64848485 182.730126,2.01515152 C183.238494,1.38181818 183.916318,0.921212121 184.763598,0.575757576 C185.610879,0.23030303 186.57113,0.0575757576 187.700837,0.0575757576 C188.830544,0.0575757576 189.790795,0.23030303 190.638075,0.575757576 C191.485356,0.921212121 192.16318,1.38181818 192.728033,2.01515152 C193.292887,2.64848485 193.688285,3.3969697 193.970711,4.31818182 C194.196653,5.18181818 194.309623,6.21818182 194.309623,7.31212121 L194.309623,7.31212121 Z M191.485356,7.31212121 C191.485356,6.44848485 191.42887,5.64242424 191.259414,4.95151515 C191.089958,4.26060606 190.864017,3.68484848 190.58159,3.16666667 C190.242678,2.70606061 189.84728,2.3030303 189.395397,2.07272727 C188.943515,1.84242424 188.322176,1.66969697 187.644351,1.66969697 C187.079498,1.66969697 186.514644,1.72727273 186.006276,1.84242424 C185.497908,1.95757576 185.10251,2.13030303 184.820084,2.41818182 C184.537657,2.64848485 184.311715,3.16666667 184.198745,3.97272727 C184.085774,4.77878788 183.972803,5.87272727 183.972803,7.25454545 C183.972803,8.11818182 184.029289,8.86666667 184.142259,9.61515152 C184.25523,10.3060606 184.481172,10.9393939 184.763598,11.4 C185.046025,11.9181818 185.441423,12.3212121 185.893305,12.5515152 C186.345188,12.8393939 186.966527,12.9545455 187.644351,12.9545455 C188.378661,12.9545455 188.943515,12.8969697 189.451883,12.7818182 C189.903766,12.6666667 190.299163,12.4939394 190.638075,12.2636364 C190.807531,12.1484848 190.920502,11.9757576 191.033473,11.630303 C191.146444,11.3424242 191.259414,10.9393939 191.3159,10.4787879 C191.372385,10.0181818 191.42887,9.5 191.485356,8.98181818 L191.485356,7.31212121 L191.485356,7.31212121 Z"></path>
                    <path d="M212.893305,14.5666667 L203.460251,4.54848485 L203.403766,4.54848485 C203.403766,5.41212121 203.460251,6.16060606 203.460251,6.85151515 L203.460251,7.77272727 L203.460251,8.57878788 L203.460251,9.26969697 L203.460251,9.67272727 L203.460251,14.5090909 L201.878661,14.5090909 L201.878661,0.115151515 L203.064854,0.115151515 L212.497908,10.1333333 C212.497908,9.38484848 212.497908,8.63636364 212.441423,8.0030303 L212.441423,7.13939394 L212.441423,6.27575758 L212.441423,5.52727273 L212.441423,5.00909091 L212.441423,0.287878788 L214.023013,0.287878788 L214.023013,14.6818182 L212.893305,14.6818182 L212.893305,14.5666667 Z"></path>
                </g>
            </g>
        </g>
    </g>
</svg>